<svg xmlns="http://www.w3.org/2000/svg" viewBox="0 0 400 400">
    <g fill-rule="evenodd">
        <path fill="#fcfefc" d="M 50 20 L 350 20 L 375 50 L 375 350 L 350 375 L 325 375 L 50 375 L 25 350 L 20 50"/>
        <path fill="#055394" d="M66.6 8.428c-24.888 2.532-45.918 19.388-53.809 43.13C9.49 61.487 9.8 46.33 9.8 198v135l1.148 4.555c6.795 26.961 27.49 45.763 53.959 49.026 7.605.937 259.235.94 266.51.003 29.039-3.741 51.926-26.94 54.95-55.7.595-5.657.61-260.872.015-266.4-2.941-27.365-23.028-49.146-50.903-55.197L330.6 8.228l-130.4-.063c-71.72-.034-131.84.084-133.6.263m262 19.365c18.924 2.737 33.002 15.391 37.869 34.039l.931 3.568.115 130.6c.105 118.249.055 130.969-.525 134.505-3.188 19.424-18.698 34.43-38.319 37.073-5.468.737-257.058.57-261.992-.174-18.574-2.799-33.295-16.834-37.066-35.339l-.83-4.072.012-130.297c.007-80.415.158-131.188.392-132.626 3.311-20.279 19.99-35.717 40.613-37.59 5.757-.523 255.104-.221 258.8.313M188.34 64.728c-.786.401-4.715 3.776-8.731 7.5-4.017 3.725-8.407 7.743-9.756 8.93-1.349 1.187-7.039 6.407-12.645 11.6-16.342 15.14-20.728 19.185-25.609 23.622-14.941 13.581-23.61 21.836-24.169 23.013-2.177 4.587 1.547 9.488 6.228 8.195 2.045-.565 3.643-1.843 11.742-9.392 16.394-15.282 15.878-14.941 17.714-11.686 3.29 5.829 13.685 13.153 23.486 16.547 13.448 4.657 34.883 4.539 48.2-.267 10.146-3.661 21.166-11.505 23.466-16.703 1.566-3.537 1.875-3.436 8.619 2.808 8.596 7.959 17.588 16.087 19.043 17.211 6.554 5.066 13.302-2.426 7.745-8.6-.81-.9-5.523-5.326-10.473-9.834-4.95-4.509-13.601-12.445-19.225-17.635-5.623-5.19-14.428-13.307-19.565-18.037-5.138-4.73-13.497-12.444-18.576-17.142-12.315-11.393-13.579-12.125-17.494-10.13m5.491 15.486c1.338 1.001 3.644 3.099 15.192 13.819 4.167 3.869 10.097 9.343 13.177 12.165 8.994 8.241 9.148 8.386 10.3 9.756 1.593 1.894 1.432 2.661-.8 3.812-1.045.539-3.251 2.117-4.901 3.507-20.065 16.894-51.088 17.275-71.473.877-2.288-1.841-4.703-3.628-5.364-3.97-3.344-1.729-4.838-.106 27.418-29.78 13.685-12.59 13.441-12.438 16.451-10.186M252.515 302.7c-.904.605-3.235 2.515-5.178 4.244-29.992 26.685-83.777 26.43-114.723-.544-4.792-4.177-6.285-4.72-8.989-3.269-6.149 3.297-2.181 9.73 11.706 18.979 31.225 20.794 79.165 20.605 110.485-.436 9.082-6.101 14.146-10.718 15.045-13.718 1.403-4.684-4.057-8.123-8.346-5.256"/>
        <path fill="#ec2224" d="M68.8 161.6c-.882.882-1.288 52.665-.431 54.919.557 1.465 1.048 1.538 11.831 1.768 28.416.603 35.6-2.764 35.6-16.687 0-6.235-.837-8.34-4.617-11.615-2.783-2.411-2.909-3.059-1.04-5.344 6.54-7.995 3.747-19.908-5.391-22.994-3.792-1.281-34.678-1.321-35.952-.047m68.452.3c-1.233 1.248-18.466 51.236-18.457 53.538.009 2.331.83 2.624 7.543 2.697 7.448.081 7.733-.064 9.339-4.734 1.675-4.873 1.487-4.777 9.691-4.933 9.356-.179 8.978-.393 11.078 6.296.987 3.142 1.795 3.441 9.181 3.402 8.726-.046 9.125-.459 6.78-7.025-.656-1.838-4.061-11.801-7.567-22.141-8.341-24.602-9.1-26.671-10.091-27.5-.735-.614-1.794-.7-8.624-.7h-7.787l-1.086 1.1m32.577-.471c-1.125 1.124-1.111 1.151 11.397 21.73l6.174 10.158.207 11.242c.268 14.615-.378 13.635 8.993 13.638 8.478.004 8.195.484 8.198-13.871.002-11.835-.981-9.051 9.043-25.603 11.744-19.394 11.659-17.924 1.036-17.922-9.129.002-8.446-.419-13.027 8.042-5.824 10.756-5.386 10.771-11.486-.409-4.363-7.997-3.747-7.631-12.835-7.633-5.897-.001-7.176.103-7.7.628m66.892.5c-1.103 1.311-18.454 51.902-18.454 53.808 0 1.807.837 2.117 6.424 2.374 8.536.394 9.016.173 10.713-4.923 1.538-4.617 1.434-4.565 9.388-4.714 8.226-.154 9.184.118 10.159 2.885.357 1.013.937 2.658 1.288 3.658 1.03 2.925 1.741 3.183 8.762 3.183 8.812 0 9.291-.478 7.038-7.025-.639-1.856-4.426-12.976-8.415-24.711-9.792-28.803-7.541-25.664-18.407-25.664h-7.546l-.95 1.129m43.533-.3l-1.054.829v53.578l.939.939c.836.837 1.453.971 5.691 1.235 31.775 1.986 41.501-5.26 40.869-30.445-.379-15.094-5.396-23.603-15.467-26.232-4.384-1.144-29.5-1.067-30.978.096M92.765 172.83c3.839.823 5.547 4.341 3.633 7.48-1.057 1.734-2.154 2.09-6.442 2.09-4.754 0-5.556-.659-5.556-4.563 0-5.104 2.087-6.353 8.365-5.007m212.22 2.545c7.252 3.548 7.633 24.213.515 27.886-2.902 1.498-7.911 1.56-9.049.113-1.304-1.658-1.171-27.115.149-28.578 1.125-1.247 5.233-.963 8.385.579m-58.488 5.925c.608.929 3.503 10.884 3.503 12.046 0 1.52-1.454 2.254-4.469 2.254-4.376 0-4.993-.924-3.695-5.538 2.677-9.52 3.344-10.774 4.661-8.762m-99.354 1c.418.825.894 2.13 1.059 2.9.165.77.647 2.48 1.07 3.8 1.696 5.285 1.092 6.6-3.032 6.6-5.163 0-5.388-.602-3.2-8.561 1.885-6.854 2.609-7.691 4.103-4.739m-50.851 12.886c4.214 1.913 4.275 7.036.108 9.072-2.614 1.277-9.819 1.029-11.033-.38-1.747-2.029-1.247-8.27.727-9.063 1.76-.707 8.352-.467 10.198.371m-38.44 36.438c-15.36 1.783-23.052 11.625-23.052 29.495 0 18.994 8.568 29.051 25.2 29.582 12.069.385 18.481-2.891 22.828-11.665 3.326-6.712 2.772-8.146-4.035-10.438-6.508-2.192-6.993-2.073-9.247 2.259-3.171 6.095-7.913 7.914-12.945 4.965-8.159-4.782-6.85-27.184 1.74-29.757 4.567-1.368 8.179.11 11.316 4.632 1.524 2.197 2.172 2.316 6.954 1.281 8.522-1.847 9.099-2.728 5.859-8.949-2.802-5.378-7.771-9.399-13.07-10.575-1.74-.386-8.761-1.346-8.79-1.201-.005.028-1.247.196-2.758.371m162.415 1.151C199.846 233.043 202 232.191 202 240c0 7.521-.019 7.506 9.856 7.571 6.795.044 6.108-2.227 6.238 20.629.06 10.56.264 19.52.454 19.911.984 2.023 12.713 2.83 14.818 1.019l1.109-.953.062-19.446c.076-23.582-.948-20.914 8.171-21.28 8.755-.351 8.492-.12 8.492-7.491 0-7.043-.104-7.158-6.482-7.164-2.485-.003-5.148-.059-5.918-.126-.77-.066-9.11-.019-18.533.105m47.533.044c-5.06.12-9.223.255-9.251.3-.877 1.38-.959 4.1-.858 28.574l.109 26.285.911.911.911.911h40.047l.966-1.122c1.727-2.009 1.291-10.423-.589-11.354-.355-.176-5.906-.411-12.336-.522-14.184-.245-13.51.024-13.51-5.402 0-5.379-.515-5.156 12.446-5.4l10.625-.2.965-1.122c.87-1.013.964-1.487.964-4.856 0-5.931.745-5.58-12.353-5.822-12.7-.235-12.462-.155-12.761-4.285-.287-3.967-.574-3.878 13.345-4.115 14.55-.248 13.569.229 13.569-6.597 0-6.476 1.059-5.959-12.713-6.203-6.208-.11-15.427-.101-20.487.019m45.311-.095c-3.283.272-3.111-1.307-3.111 28.508v26.323l.965 1.123c1.704 1.981 14.324 1.831 15.285-.182.182-.383.426-4.876.541-9.986.199-8.84.251-9.331 1.073-10.152 2.298-2.296 4.255-.118 9.894 11.008 5.664 11.178 4.679 10.434 13.812 10.434 9.802 0 10.019-.295 6.215-8.451-3.74-8.018-4.708-9.789-6.885-12.589-2.783-3.581-2.743-3.875 1.045-7.527 3.994-3.851 4.932-5.988 5.17-11.78.463-11.246-4.656-16.311-16.715-16.539-11.155-.211-25.813-.313-27.289-.19M93.6 233.6c-1.231 1.231-1.259 53.941-.029 55.171 1.193 1.193 2.921 1.279 22.964 1.15l18.735-.121.965-1.122c1.729-2.011 1.25-10.469-.651-11.486-.429-.23-5.531-.392-12.335-.392h-11.604l-1.123-.965c-1.069-.92-1.122-1.129-1.122-4.434 0-3.304.053-3.514 1.122-4.435l1.123-.966h20.31l1.123-.965c1.099-.946 1.122-1.053 1.122-5.236 0-6.13.673-5.799-11.785-5.799-6.012 0-10.379-.168-11.126-.429-2.098-.731-2.863-4.879-1.273-6.9l.815-1.037 11.774-.117c11.194-.111 11.814-.157 12.581-.925 1.59-1.59 1.576-9.43-.019-11.025-1.222-1.222-40.342-1.192-41.567.033m52.4 0c-1.248 1.248-1.256 53.759-.008 55.099 1.023 1.098 3.342 1.431 8.607 1.236 6.387-.236 5.956.732 6.201-13.926.277-16.607-.025-16.595 9.96-.409 9.508 15.411 8.324 14.394 16.76 14.398 5.104.002 6.903-.437 7.432-1.816.136-.356.248-12.603.248-27.215 0-31.855.995-28.167-7.6-28.167-8.289 0-7.598-1.099-7.61 12.1-.016 18.547-.187 18.568-10.79 1.3-5.579-9.086-7.65-12.189-8.555-12.823-1.437-1.007-13.601-.821-14.645.223m191.374 11.808c7.571 3.81.517 12.259-8.371 10.028-2.859-.717-3.085-9.519-.272-10.601 1.744-.671 6.843-.333 8.643.573"/>
    </g>
</svg>