<svg xmlns="http://www.w3.org/2000/svg" viewBox="0 0 551 273" version="1.1">
    <path fill="#ffb20c" d="M 370.73 69.80 C 388.25 63.83 407.45 62.58 425.50 66.83 C 441.22 70.10 456.08 78.19 466.81 90.22 C 487.06 113.06 489.04 149.36 472.88 174.95 C 466.71 184.58 457.97 192.40 448.04 198.01 C 427.60 209.06 402.95 211.53 380.46 206.17 C 360.88 201.85 342.48 189.94 332.49 172.28 C 320.35 150.60 320.32 122.53 332.54 100.88 C 340.79 86.15 355.07 75.58 370.73 69.80 M 392.44 82.75 C 386.21 84.32 380.06 86.89 375.21 91.20 C 367.41 97.80 362.40 107.33 360.20 117.23 C 356.37 132.44 357.24 148.76 362.42 163.56 C 366.44 173.61 373.53 182.99 383.68 187.40 C 397.38 193.81 414.32 193.04 427.33 185.27 C 434.74 180.71 440.13 173.48 443.65 165.63 C 450.24 149.05 450.98 130.17 445.59 113.16 C 442.71 103.17 436.54 93.97 427.79 88.22 C 417.36 81.73 404.35 80.11 392.44 82.75 Z"/>
    <path fill="#0b2972" d="M 68.36 68.37 C 95.19 68.42 122.04 68.31 148.87 68.43 C 161.12 68.87 174.59 71.33 183.42 80.55 C 190.57 88.00 191.90 99.11 190.35 108.92 C 189.09 118.49 181.83 126.27 173.41 130.39 C 185.26 132.73 197.06 139.38 202.24 150.76 C 202.04 123.31 202.25 95.85 202.13 68.39 C 219.41 68.36 236.69 68.39 253.97 68.38 C 267.61 68.19 281.39 69.38 294.48 73.39 C 309.91 77.51 324.26 87.00 332.54 100.88 C 320.32 122.53 320.35 150.60 332.49 172.28 C 324.32 186.02 310.15 195.45 294.90 199.62 C 283.31 203.17 271.14 204.71 259.04 204.62 C 240.07 204.62 221.10 204.64 202.13 204.61 C 202.21 196.90 202.10 189.19 202.22 181.49 C 198.86 190.09 191.27 196.68 182.69 199.80 C 173.93 203.36 164.38 204.71 154.96 204.62 C 126.10 204.63 97.23 204.61 68.37 204.63 C 68.37 159.21 68.40 113.79 68.36 68.37 M 100.73 86.69 C 100.77 99.72 100.73 112.76 100.75 125.79 C 112.18 125.76 123.60 125.84 135.02 125.75 C 139.83 125.43 144.92 124.74 149.05 122.10 C 160.08 115.47 160.03 96.67 148.81 90.27 C 144.73 87.65 139.80 86.69 135.01 86.71 C 123.58 86.65 112.16 86.70 100.73 86.69 M 234.79 86.69 C 234.78 119.94 234.80 153.18 234.78 186.43 C 249.79 186.07 265.59 188.16 279.70 181.79 C 291.14 177.43 300.32 167.57 303.75 155.81 C 308.27 141.66 307.69 125.78 301.81 112.10 C 297.41 102.46 289.05 94.76 279.11 91.09 C 265.13 84.98 249.60 87.05 234.79 86.69 M 100.76 143.89 C 100.72 158.07 100.77 172.25 100.73 186.44 C 116.14 186.41 131.55 186.49 146.96 186.40 C 152.80 186.43 158.82 185.21 163.59 181.68 C 174.09 174.37 174.13 156.67 163.97 149.05 C 158.46 145.22 151.66 143.90 145.05 143.88 C 130.28 143.89 115.52 143.88 100.76 143.89 Z"/>
</svg>