<svg xmlns="http://www.w3.org/2000/svg" width="326pt" height="172pt" viewBox="0 0 2817 1485">
  <g fill="#fff">
    <path d="M734 604c4-3 11-1 12 4 1 3 0 5-2 8 7 0 13 2 19 5l5 3c6 0 12 2 17 5 4 4 7 11 5 17-3 6-10 10-17 11-3 1-2 6-3 8-15-3-30-3-45-2l-17 2-1-6-10-4c-5-3-10-8-9-14-1-5 2-9 6-12 5-3 11-5 16-5l4-2c6-4 13-5 20-6-3-3-4-9 0-12m-17 28c-3 5-2 10 1 14 4 4 10 6 16 7l-2-12c-1-6 1-11 2-17-7 0-13 3-17 8m26-8c5 9 4 21-1 29 8 0 16-3 20-10 1-4 1-9-2-12-4-5-11-7-17-7m-47 14c-1 3-1 8 2 10 3 4 9 5 14 5v-3c-4-2-7-6-8-10 0-4 2-7 3-10-5 1-10 3-11 8m75-8c2 4 4 9 2 13-2 5-7 7-11 10 6 0 13 0 18-4 3-3 3-7 2-11-1-5-6-7-11-8zM797 668c16 3 30 14 36 29 2 6 4 11 4 17-1-16 14-33 30-30-10 7-16 18-20 30-7 27-12 54-15 81-3 19-5 40 2 59 5-10 12-19 22-24l4-1c-8 12-13 25-17 38 6-8 13-16 23-19l-11 21-5 17c6-9 14-18 24-21-7 11-13 23-16 36 5 8 10 15 13 23 3 5 5 12 4 18s-3 12-6 17c-6 8-17 12-27 11-17-1-34-13-40-30-3 0-6 3-8 5a63 63 0 00-9 46c1 8 7 17 16 16l8-12c3 7 3 15 2 23-1 10-5 19-11 28-5 8-11 17-12 27l-4 18c-2-3-4-6-8-5-4 2-7 6-9 10-3 8-4 16-9 22-1 2-2 3-4 3l-16 3-2 9-4-2c-3-10-4-21-1-31l1-2-4 6v9h-1c2 2 1 5 1 7l-7 1c-3 2-4 5-5 8l-2-4c-3-10-2-21 2-30v-4l-2 1c-2 7-2 15-5 21-3-1-3-6-8-5l-3 6c-2 0-1-3-2-4 0-4-1-8 1-12 4-5 6-11 11-15l2-4c-4 1-5 4-7 6l-5 5-2-8-6-1c-1-2 1-5 3-7 3-1 6 0 9-2 2-3 4-6 8-6 7 0 11 5 17 8 5 3 10 2 15 0 5-3 10-7 13-12 7-9 13-19 18-29l2-4-9-1c-1 3-2 6-4 7-3 3-6 3-9 4l-1-14c-1-10-8-19-11-28-4-14-4-29-3-43 0-7 2-15 0-22-14-14-26-32-45-40-6-3-13-3-20-2-4 1-7 4-8 8-1 6 4 11 10 12-2 4-4 7-7 8-5 2-10 3-15 2l-7-3c-3 4-7 8-8 14l1 19c0 5-3 10-6 14l-1-1-1-6c-4 0-8-1-12-4-3 6-7 14-14 16-3 0-5-2-7-3-3 1-5 4-7 6-2-6 0-13 0-20l1-3 10-10-2-3-11 11c-1 1-3-1-4-1 0-2-1-6-4-6l-4 3c-1-7 3-14 7-19 1-3 4-3 6-3l10 2v-3c-5-1-10-1-14-3v-9l-7-2 3-5c5-2 11-4 17-4 4 2 7 6 10 10l6-3c9-7 15-16 21-25 2-2 4-5 4-8-7-4-14-9-19-16l-4-10c11-3 19-11 25-19 9-12 17-26 27-38 7-7 16-14 26-17 8-2 17-2 24-6s11-13 11-21c-4 0-9 1-11 5-3 3-3 7-3 11-10-9-12-23-7-35 1 3 2 5 5 6s8 1 9-3c2-8 1-17-4-24-2-1-4-4-6-2-5 2-6 7-9 11-5-7-7-16-7-24 0-1 0-3 2-3l9-4c-4-2-9 0-13-1 1-2 1-5 3-5 17-4 34-8 51-6 13 1 25 7 32 18 11 14 14 33 15 51h-9c1 9 3 17 2 26l-2 31c0 1 1 4-1 4l-2-1 2-1 1-18-1 18c-2 1-4-2-5-4-2 2-1 4-2 6-3 17-11 33-24 44l2 2 21 21c12 12 25 24 32 41 6 11 13 22 21 32 4 4 8 9 14 8 5 0 8-4 9-8 2-6-2-13-5-18-8-16-19-30-28-46s-16-33-17-52c0-13 3-27 5-40l7-42v-28c0-17-6-34-19-46m-72 11v11l6-2 17-6c0-2-2-2-3-2l-20-1z"/>
    <path d="M673 718c2-4 4-8 7-9-1 4-3 8-1 12 2 3 5 3 8 3l20-7c4-2 8-2 12 0l-11 4c-6 4-11 11-19 14-5 1-10 2-14-2s-3-11-2-15zM620 726c4 1 6 5 8 9 3 12-2 23 0 35 3 14 19 20 22 34l-2 5c-5 7-9 15-16 21l-22-29h-2l-7 10-6 1c-4 0-9 0-11-4 5-4 9-10 9-17 1-11-5-20-11-29l-8-9c6-2 12-4 18-2l9 11 2-1-1-4-6-10c-4-5-1-12-3-18 7 2 13 5 17 10 4 4 2 11 7 15l-1-13c0-5 4-9 4-15zM701 911c7-2 14 3 20 8l-1 10 1-9c1 3-1 7 1 10 3 6 9 9 12 14 1 6 0 11-1 17-4-3-9-6-14-3-4 1-5 6-6 10-2 9 2 17 6 25 5 11 13 21 21 29-4 6-11 12-19 12-9 0-18 0-26 4-4 3-7 9-12 11l-2-7-3-6c-5 0-10 4-12 8-3 4-8 9-14 7l-7-1-2 8c-5-4-5-10-4-16l4-16h-3c-1 5-1 11-5 15l-6-7-7 4c0-7 3-13 7-18 3-4 6-8 6-13l-12 13-4-11h-6c1-4 3-7 7-9 5-3 12-3 18-1v-4l-12-3 2-8-3-5c6-1 12 1 17 5 7 6 11 14 19 19 5 2 10 2 15 2l19-1c2-1-1-3-2-4a60 60 0 01-15-38l-1-6c-4-1-7-2-9-5-4-3-5-8-6-13 9 0 17-6 22-12s9-13 17-15z"/>
  </g>
  <g fill="#dab42d">
    <path d="M504 18a50 50 0 0159 39c2 13-2 27-10 37l-8 8c46 4 92 15 131 40l11 8c37 4 75 12 108 31 14 10 27 22 36 37 8 14 13 31 12 47 0 13-3 25-9 36-7 16-20 30-34 41-14 10-29 18-45 23l-13 4c16 2 31 3 46 9l2 10 11 58c-77-10-154-17-232-19h-94c-29 0-57 3-86 4l-65 5-96 12h-5c6-23 9-46 14-69 5-3 11-4 17-5 11-3 21-4 32-5-22-5-44-15-62-29s-34-34-39-57c-3-9-2-18-2-27 1-21 11-41 25-56 19-19 45-31 70-39 20-5 41-9 61-11l5-3c26-19 57-30 88-38 16-3 32-6 49-7-8-7-15-16-17-26-3-11-2-24 4-34 8-12 21-21 36-24M404 172c-16 12-30 27-37 46-4 9-6 19-6 29 0 22 10 44 25 60 15 17 35 28 55 36 16 5 32 9 49 10-15-22-20-49-23-75-2-19-2-37-1-56 2-27 7-55 21-79-30 2-59 12-83 29m135-29c12 20 16 42 19 65l2 19v46c-2 13-3 25-7 37-3 15-8 30-17 43a168 168 0 00100-41c12-12 22-27 26-44 4-12 4-26 1-39-5-20-18-38-33-51-26-21-58-32-91-35m-261 54c-16 8-31 20-38 37-7 15-9 32-6 48 4 16 13 31 26 41 17 14 38 21 60 24 18 3 37 3 56 0-12-5-24-10-34-18-19-12-35-30-43-51-11-31-3-66 17-92-13 2-26 6-38 11m432-11c14 18 22 40 22 63 0 18-6 36-16 51l-20 20c-13 12-29 20-45 27 5 2 11 1 16 2 12 1 25 0 37-1 18-3 36-8 52-18 16-9 28-24 34-41 4-14 5-29 1-43-4-16-14-30-27-39-16-11-35-18-54-21zM517 478h18l60 1a2126 2126 0 01314 29c20 108 38 217 57 325l31 185c2 13 5 25 5 38v20c-3 19-9 37-20 52-11 17-26 31-42 43a43238 43238 0 01-377 260l-40 27c-3 2-6-1-8-2l-205-137c-64-43-129-86-192-130-14-10-29-20-42-32a115 115 0 01-45-97c-1-16 3-31 6-46l93-502 11-2 63-10v3c-17 88-32 176-47 264l-48 282c-3 16 0 34 11 47 12 16 29 28 45 39l57 39 196 129 98 64 1-5V525v-47m217 126c-4 3-3 9 0 12-7 1-14 2-20 6l-4 2c-5 0-11 2-16 5-4 3-7 7-6 12-1 6 4 11 9 14l10 4 1 6 17-2c15-1 30-1 45 2 1-2 0-7 3-8 7-1 14-5 17-11 2-6-1-13-5-17-5-3-11-5-17-5l-5-3c-6-3-12-5-19-5 2-3 3-5 2-8-1-5-8-7-12-4m63 64c13 12 19 29 19 46v28l-7 42c-2 13-5 27-5 40 1 19 8 36 17 52s20 30 28 46c3 5 7 12 5 18-1 4-4 8-9 8-6 1-10-4-14-8-8-10-15-21-21-32-7-17-20-29-32-41l-21-21-2-2c13-11 21-27 24-44 1-2 0-4 2-6 1 2 3 5 5 4l1-18-1 18-2 1 2 1c2 0 1-3 1-4l2-31c1-9-1-17-2-26h9c-1-18-4-37-15-51-7-11-19-17-32-18-17-2-34 2-51 6-2 0-2 3-3 5 4 1 9-1 13 1l-9 4c-2 0-2 2-2 3 0 8 2 17 7 24 3-4 4-9 9-11 2-2 4 1 6 2 5 7 6 16 4 24-1 4-6 4-9 3s-4-3-5-6c-5 12-3 26 7 35 0-4 0-8 3-11 2-4 7-5 11-5 0 8-4 17-11 21s-16 4-24 6c-10 3-19 10-26 17-10 12-18 26-27 38-6 8-14 16-25 19l4 10c5 7 12 12 19 16 0 3-2 6-4 8-6 9-12 18-21 25l-6 3c-3-4-6-8-10-10-6 0-12 2-17 4l-3 5 7 2v9c4 2 9 2 14 3v3l-10-2c-2 0-5 0-6 3-4 5-8 12-7 19l4-3c3 0 4 4 4 6 1 0 3 2 4 1l11-11 2 3-10 10-1 3c0 7-2 14 0 20 2-2 4-5 7-6 2 1 4 3 7 3 7-2 11-10 14-16 4 3 8 4 12 4l1 6 1 1c3-4 6-9 6-14l-1-19c1-6 5-10 8-14l7 3c5 1 10 0 15-2 3-1 5-4 7-8-6-1-11-6-10-12 1-4 4-7 8-8 7-1 14-1 20 2 19 8 31 26 45 40 2 7 0 15 0 22-1 14-1 29 3 43 3 9 10 18 11 28l1 14c3-1 6-1 9-4 2-1 3-4 4-7l9 1-2 4c-5 10-11 20-18 29-3 5-8 9-13 12-5 2-10 3-15 0-6-3-10-8-17-8-4 0-6 3-8 6-3 2-6 1-9 2-2 2-4 5-3 7l6 1 2 8 5-5c2-2 3-5 7-6l-2 4c-5 4-7 10-11 15-2 4-1 8-1 12 1 1 0 4 2 4l3-6c5-1 5 4 8 5 3-6 3-14 5-21l2-1v4c-4 9-5 20-2 30l2 4c1-3 2-6 5-8l7-1c0-2 1-5-1-7h1v-9l4-6-1 2c-3 10-2 21 1 31l4 2 2-9 16-3c2 0 3-1 4-3 5-6 6-14 9-22 2-4 5-8 9-10 4-1 6 2 8 5l4-18c1-10 7-19 12-27 6-9 10-18 11-28 1-8 1-16-2-23l-8 12c-9 1-15-8-16-16-2-15-1-33 9-46 2-2 5-5 8-5 6 17 23 29 40 30 10 1 21-3 27-11 3-5 5-11 6-17s-1-13-4-18c-3-8-8-15-13-23 3-13 9-25 16-36-10 3-18 12-24 21l5-17 11-21c-10 3-17 11-23 19 4-13 9-26 17-38l-4 1c-10 5-17 14-22 24-7-19-5-40-2-59 3-27 8-54 15-81 4-12 10-23 20-30-16-3-31 14-30 30 0-6-2-11-4-17-6-15-20-26-36-29m-124 50c-1 4-2 11 2 15s9 3 14 2c8-3 13-10 19-14l11-4c-4-2-8-2-12 0l-20 7c-3 0-6 0-8-3-2-4 0-8 1-12-3 1-5 5-7 9m-53 8c0 6-4 10-4 15l1 13c-5-4-3-11-7-15-4-5-10-8-17-10 2 6-1 13 3 18l6 10 1 4-2 1-9-11c-6-2-12 0-18 2l8 9c6 9 12 18 11 29 0 7-4 13-9 17 2 4 7 4 11 4l6-1 7-10h2l22 29c7-6 11-14 16-21l2-5c-3-14-19-20-22-34-2-12 3-23 0-35-2-4-4-8-8-9m81 185c-8 2-12 9-17 15s-13 12-22 12c1 5 2 10 6 13 2 3 5 4 9 5l1 6c0 14 6 27 15 38 1 1 4 3 2 4l-19 1c-5 0-10 0-15-2-8-5-12-13-19-19-5-4-11-6-17-5l3 5-2 8 12 3v4c-6-2-13-2-18 1-4 2-6 5-7 9h6l4 11 12-13c0 5-3 9-6 13-4 5-7 11-7 18l7-4 6 7c4-4 4-10 5-15h3l-4 16c-1 6-1 12 4 16l2-8 7 1c6 2 11-3 14-7 2-4 7-8 12-8l3 6 2 7c5-2 8-8 12-11 8-4 17-4 26-4 8 0 15-6 19-12-8-8-16-18-21-29-4-8-8-16-6-25 1-4 2-9 6-10 5-3 10 0 14 3 1-6 2-11 1-17-3-5-9-8-12-14-2-3 0-7-1-10l-1 9 1-10c-6-5-13-10-20-8z"/>
    <path d="M717 632c4-5 10-8 17-8-1 6-3 11-2 17l2 12c-6-1-12-3-16-7-3-4-4-9-1-14zM743 624c6 0 13 2 17 7 3 3 3 8 2 12-4 7-12 10-20 10 5-8 6-20 1-29zM696 638c1-5 6-7 11-8-1 3-3 6-3 10 1 4 4 8 8 10v3c-5 0-11-1-14-5-3-2-3-7-2-10zM771 630c5 1 10 3 11 8 1 4 1 8-2 11-5 4-12 4-18 4 4-3 9-5 11-10 2-4 0-9-2-13zM325 637h33v28h24l1-3v-24h31v70H267v-70h31v18l1 9h25c2-9 1-19 1-28zM725 679l20 1c1 0 3 0 3 2l-17 6-6 2v-11zM291 719h99c2 8 2 17 3 25l29 230 2 20H257l5-38 29-235v-2m26 80c0 6-1 11 1 16h45c2-5 1-11 1-16l-1-1a1855 1855 0 00-46 1m1 54v16h46v-16l-4-1a6865 6865 0 01-42 1m-1 54c0 5-1 11 1 16h45c2-5 1-11 1-16l-4-1h-38l-5 1zM238 1006h205v70h-55c0-6 1-12-1-18h-93v18h-56v-70z"/>
  </g>
  <g fill="#a42a25">
    <path d="M1204 479h260c52 0 104 2 155 11 39 7 77 17 110 38a145 145 0 0166 80 191 191 0 011 119c-7 19-18 36-32 50-25 25-57 41-90 51l-24 7c37 7 74 18 106 39 16 10 30 22 41 37 10 14 17 29 22 45 6 20 8 42 8 63-1 23-4 47-12 69-11 29-31 55-56 74-29 21-64 34-100 42-27 5-55 8-83 10l-62 1h-167l-143-1V479m197 134v164h45c26 0 52 1 78-3 19-3 39-8 55-19 13-10 22-26 25-42 4-19 2-39-7-56-8-15-22-26-38-32-22-9-46-12-70-12h-88m0 291v177h73c27 0 54-1 80-8 18-5 35-12 48-26 12-14 17-33 17-51 1-18-2-36-12-51a82 82 0 00-43-30c-26-9-54-10-82-11h-81zM1896 479h319c34 0 69 1 103 6 29 4 57 12 83 23 24 11 47 25 65 44 18 17 32 38 41 61 9 20 14 43 17 65 3 28 2 57-2 85a208 208 0 01-108 154c-22 12-45 20-68 26-31 7-64 10-96 11h-149v261h-205v-127-609m205 138v192h85c18 0 36-1 54-4 15-3 29-8 42-16 10-6 18-14 24-24a122 122 0 006-94c-5-15-16-28-30-36-13-8-28-12-42-15-20-3-39-4-59-3h-80zM2593 479h204v735l-204 1V479z"/>
  </g>
</svg>