<svg xmlns="http://www.w3.org/2000/svg" width="300" height="200" fill="none" viewBox="0 0 300 200"><path fill="#0079ff" d="M300 0H0v200h300z"/><path fill="#fff" d="M214.75 88.75h-3.9a1.4 1.4 0 00-1.4 1.4v4c-.4-2.5-3.6-5.9-9.15-5.9-7.8 0-13.5 6.2-13.5 14.65 0 8.5 5.75 14.85 13.4 14.85a12.5 12.5 0 009.25-4.3v2.5c0 .75.6 1.35 1.4 1.35h3.9c.75 0 1.4-.6 1.4-1.4V90.15a1.4 1.4 0 00-1.4-1.45zm-5.3 14.25c0 5.85-4 8.85-7.95 8.85-5.1 0-7.9-4.6-7.9-8.95s2.75-8.7 7.95-8.7c3.9 0 7.9 3 7.9 8.8zm24.25-2.7c-3.15-.85-5.85-1.6-5.85-3.65 0-1.65 1.55-2.6 4.2-2.6 2.5 0 4.15 1.05 4.6 3a1.4 1.4 0 001.4 1h3.9a1.4 1.4 0 001.35-1.6c-.75-5.1-4.9-8.2-11-8.2-6.5 0-11.15 3.6-11.15 8.5 0 6.2 5.7 7.7 10.25 8.95 3.15.8 5.85 1.5 5.85 3.5 0 1.75-1.8 2.8-4.6 2.8-2.5 0-4.45-1.2-5-3.05a1.4 1.4 0 00-1.3-1.05h-4.1a1.4 1.4 0 00-1.1.5 1.4 1.4 0 00-.3 1.15c.9 4.85 5.75 8.2 11.9 8.2 6.5 0 11.05-3.5 11.05-8.65-.2-6-5.7-7.55-10.1-8.8zm29.85-11.55c-3.2 0-6.1 1.05-8.15 2.95V80.65a1.4 1.4 0 00-1.4-1.4h-3.85a1.4 1.4 0 00-1.4 1.4v35.25c0 .8.65 1.4 1.4 1.4H254a1.4 1.4 0 001.4-1.4v-14c0-4.6 2.4-7.75 6.5-7.75s6.5 3.1 6.5 7.7v14.05c0 .8.6 1.4 1.4 1.4h3.8c.75 0 1.4-.6 1.4-1.4V101c0-7.45-4.5-12.25-11.5-12.25zM182.85 108l-3.3-1.9a1.4 1.4 0 00-1.85.5c-.85 1.3-2 2.4-3.4 3.15a11.45 11.45 0 01-5.7 1.45 11.5 11.5 0 01-8.65-3.4 11.85 11.85 0 01-3.3-8.55c0-3.5 1.1-6.35 3.3-8.6a11.6 11.6 0 018.65-3.35c2 0 3.95.5 5.7 1.45 1.35.75 2.5 1.85 3.4 3.15a1.4 1.4 0 001.9.5l3.3-1.95a1.4 1.4 0 00.5-2 16.8 16.8 0 00-5.9-5.35 18.05 18.05 0 00-8.9-2.3A18.1 18.1 0 00150 99.25a18.05 18.05 0 0018.6 18.4 18 18 0 008.95-2.3 17 17 0 005.8-5.35 1.4 1.4 0 00-.5-2zm-53.2-11.7a1.75 1.75 0 00-1.75 1.75v2.55a1.75 1.75 0 001.75 1.75h9.95c-1.15 6.75-8.2 9-11.3 9-3.55 0-6.6-1.2-8.95-3.5a11.5 11.5 0 01-3.4-8.55 11.65 11.65 0 0112-12c2.05 0 4.05.5 5.85 1.45 1.35.7 2.5 1.7 3.35 2.9a1.8 1.8 0 002.3.45l2.65-1.5a1.75 1.75 0 00.85-1.2 1.7 1.7 0 00-.25-1.35c-1.5-2-3.4-3.75-5.65-5a18.5 18.5 0 00-9.1-2.25c-5.25 0-9.7 1.8-13.25 5.35a17.85 17.85 0 00-5.35 13.1c0 5.15 1.8 9.5 5.35 13.1a18.5 18.5 0 0013.55 5.3c4.5 0 9.8-2.2 13.1-5.5 2.9-2.9 4.15-7 4.5-9.3l.1-.55.15-3.65a2.25 2.25 0 00-2.2-2.35z"/><path fill="#6fb9f6" d="M87.65 99.25a33.25 33.25 0 01-3.6 15.1 3.365 3.365 0 106 3.05 40.2 40.2 0 000-36.3 3.35 3.35 0 00-4.8-1.35 3.35 3.35 0 00-1.2 4.4 33.25 33.25 0 013.6 15.1z"/><path fill="#6fb9f6" d="M76.8 99.25a22.45 22.45 0 01-2.05 9.4 3.356 3.356 0 106.1 2.8 29.45 29.45 0 000-24.4 3.356 3.356 0 00-6.1 2.8c1.35 2.95 2 6.15 2 9.4z"/><path fill="#002cb7" d="M54.25 121.8A22.55 22.55 0 1168 81.35a3.35 3.35 0 104.1-5.25 29.25 29.25 0 10.05 46.3 3.3 3.3 0 00.3-5h-.05a3.3 3.3 0 00-4.35-.35 22.5 22.5 0 01-13.8 4.75z"/><path fill="#fff" d="M71.8 96.85a3.4 3.4 0 00-2.4-1H57.65a3.4 3.4 0 100 6.8h7.85a11.75 11.75 0 11-5-13.35 3.4 3.4 0 004.2-.5 3.35 3.35 0 00-.55-5.25 18.6 18.6 0 00-13.9-2.4 18.25 18.25 0 00-14.1 14.2 18.5 18.5 0 1036.6 3.9 3.4 3.4 0 00-1-2.4z"/></svg>