<svg xmlns="http://www.w3.org/2000/svg" width="604" height="124pt" viewBox="0 0 604 165">
  <g fill="#23aa4a">
    <path d="M81 3l2-1 1 1 6 10c12 21 18 44 18 68l-3 27h-1a162 162 0 00-62-72C54 23 67 12 81 3z"/>
    <path d="M67 79c5-2 9-5 14-6a165 165 0 00-34 86c-15-3-30-8-44-15 12-29 36-52 64-65z"/>
  </g>
  <path fill="#60bb46" d="M84 3c33 20 59 53 71 91-16 7-33 12-50 14l3-27c0-24-6-47-18-68L84 3z"/>
  <g fill="#0b9445">
    <path d="M195 36c11-6 25-7 37-5 11 2 19 10 26 18l-17 17c-5-6-10-12-18-13-5-1-11-1-15 2-3 3-5 7-3 11l6 6c12 8 26 14 37 25 5 6 8 13 7 20 0 11-6 20-15 26-7 4-14 5-22 6-9 0-18-2-25-7-6-3-11-8-16-13l15-16h1c8 5 16 11 25 13 5 0 11-2 13-7 1-2 0-4-1-6-5-6-12-10-18-15-8-5-17-9-23-16-7-7-10-17-7-27 1-8 7-14 13-19zM259 62h22v2c13-4 28-2 37 8 7-7 16-10 26-10 12 0 23 8 29 18 3 6 4 12 4 18v50h-22V97c0-5-4-10-8-12-8-3-18 3-18 12v51h-22V97c0-5-4-10-9-12-8-3-17 4-17 12v51h-22V62z"/>
  </g>
  <path fill="#0c9446" d="M551 31h22v32h28c-2 6-5 12-10 16-5 3-12 5-18 6v27c0 4 1 9 5 11 6 3 13 3 19 3v22c-11 1-22 0-32-5-7-5-12-14-13-23-2-12-1-23-1-35h-11V63h11V31z"/>
  <path fill="#8cc63f" d="M11 92c6-20 17-40 31-56 16 10 30 22 41 36h-6l1 1-17 7c-20 8-39 22-52 39l-6 7c2-12 4-23 8-34z"/>
  <g fill="#0b9444">
    <path d="M506 79c5-11 18-18 30-17v22c-12-1-24 7-28 18-2 7-2 15-2 22v24h-23V63h22l-1 19 2-3zM381 98c4-20 23-36 43-35 10-1 20 3 28 10V63h23v85h-23v-9c-6 5-13 8-21 10a43 43 0 01-50-51m38-13a22 22 0 00-13 32c4 7 11 11 19 10 11 0 21-11 21-22-1-13-14-23-27-20z"/>
  </g>
  <path fill="#66bce1" d="M105 108c17-2 34-7 50-14 5 15 7 31 7 46-34 1-68-10-96-30-2 0-3-2-4-3a192 192 0 0043 1z"/>
  <path fill="#1595d0" d="M47 159c2-18 6-35 14-51l1-1c1 1 2 3 4 3 28 20 62 31 96 30-21 13-45 20-69 22-15 0-31 0-46-3z"/>
</svg>