<svg xmlns="http://www.w3.org/2000/svg" height="162" width="373" viewBox="0 0 373 162"><g fill-rule="evenodd"><path d="M111.469 26.332a85.584 85.584 0 00-3.332.186l.58 14.91a70.652 70.652 0 012.75-.165 70.652 70.652 0 019.738.778l2.063-14.807a85.584 85.584 0 00-11.8-.902zm-10.512.783a85.584 85.584 0 00-14.805 3.192l4.445 14.33a70.652 70.652 0 0112.2-2.69l-1.838-14.831zm29.396 1.444l-3.293 14.54a70.652 70.652 0 0111.879 3.89l5.806-13.722a85.584 85.584 0 00-14.393-4.709zm-50.951 4.255a85.584 85.584 0 00-13.457 6.918L73.9 52.348a70.652 70.652 0 0111.103-5.702l-5.607-13.832zm71.869 3.498l-6.969 13.238a70.652 70.652 0 0110.549 6.707l9.209-11.816a85.584 85.584 0 00-12.789-8.128zm-91.225 7.53a85.584 85.584 0 00-11.26 10.1l10.96 10.137a70.652 70.652 0 019.272-8.358l-8.98-11.877zm109.48 5.302l-10.145 10.97a70.652 70.652 0 018.355 9.298l11.86-8.98a85.584 85.584 0 00-10.09-11.29zm-125.44 10.26a85.584 85.584 0 00-8.227 12.713l13.203 6.95a70.652 70.652 0 016.817-10.47l-11.792-9.191zM32.814 78.646a85.584 85.584 0 00-4.72 14.387l14.517 3.29A70.652 70.652 0 0146.5 84.436l-13.686-5.79zm-6.03 21.473a85.584 85.584 0 00-.912 11.801 85.584 85.584 0 00.166 3.334l14.912-.582a70.652 70.652 0 01-.146-2.752 70.652 70.652 0 01.76-9.74l-14.78-2.06zm14.648 20.48l-14.834 1.84a85.584 85.584 0 003.12 14.836l14.328-4.443a70.652 70.652 0 01-2.614-12.232zm4.586 17.848l-13.828 5.606a85.584 85.584 0 006.977 13.451l12.58-7.934a70.652 70.652 0 01-5.729-11.13z" fill="#fecb00"/><path d="M109.619 49.613a62.395 62.395 0 00-8.932.988l2.572 14.625a47.443 47.443 0 016.801-.703l-.441-14.91zm7.306.271l-1.304 14.826a47.443 47.443 0 016.742 1.11l3.43-14.506a62.395 62.395 0 00-8.87-1.425zm-23.349 2.4a62.395 62.395 0 00-8.363 3.257l6.274 13.473a47.443 47.443 0 016.365-2.474l-4.275-14.263zm39.21 1.154l-5.104 13.996a47.443 47.443 0 016.25 2.758l7.066-13.123a62.395 62.395 0 00-8.213-3.631zm-54.003 5.558a62.395 62.395 0 00-7.238 5.297l9.527 11.365a47.443 47.443 0 015.514-4.027l-7.803-12.64zm68.434 1.918l-8.56 12.213a47.443 47.443 0 015.306 4.305l10.268-10.895a62.395 62.395 0 00-7.013-5.623zm-80.992 8.37a62.395 62.395 0 00-5.63 6.972l12.132 8.506a47.443 47.443 0 014.309-5.291L66.225 69.283zm-9.49 13.161a62.395 62.395 0 00-3.658 8.184l13.943 5.084a47.443 47.443 0 012.768-6.238l-13.051-7.02zM50.93 97.603a62.395 62.395 0 00-1.47 8.856l14.81 1.303a47.443 47.443 0 011.127-6.737l-14.465-3.42zm13.164 15.717l-14.93.444a62.395 62.395 0 00.978 8.933l14.69-2.584a47.443 47.443 0 01-.74-6.793zm1.992 12.21l-14.27 4.28a62.395 62.395 0 003.23 8.38l13.516-6.295a47.443 47.443 0 01-2.476-6.366zm5.11 11.257l-12.712 7.85a62.395 62.395 0 005.17 7.357l11.488-9.628a47.443 47.443 0 01-3.947-5.579z" fill="#ffa400"/><path d="M110.839.447a111.5 111.5 0 00-22.04 2.332L92.377 20a94 94 0 0118.563-2.064l-.1-17.489zm6.978.205l-1.004 17.57a94 94 0 0118.426 2.934l4.424-16.893A111.5 111.5 0 00117.817.65zM82.044 4.533A111.5 111.5 0 0061.38 12.47l7.824 15.535a94 94 0 0117.433-6.716l-4.59-16.756zm64.338 1.605l-5.498 16.656a94 94 0 0117.062 7.56l8.645-15.169A111.5 111.5 0 00146.4 6.14zm-91.06 9.768a111.5 111.5 0 00-17.905 12.985L49.06 41.945a94 94 0 0115.03-11.047l-8.768-14.992zm117.29 2.819l-9.65 14.709a94 94 0 0114.55 11.697l12.33-12.464a111.5 111.5 0 00-17.23-13.941zM32.442 33.769A111.5 111.5 0 0018.483 50.91l14.58 9.567a94 94 0 0111.705-14.52l-12.326-12.19zm162.16 4.005l-13.07 11.649a94 94 0 0110.99 15.07l15.01-8.781a111.5 111.5 0 00-12.93-17.942zM14.942 56.899A111.5 111.5 0 005.83 77.047l16.57 5.47a94 94 0 017.582-17.038L14.934 56.9zM3.93 83.747a111.5 111.5 0 00-3.695 21.82l17.556 1a94 94 0 012.963-18.41l-16.824-4.41zm13.563 28.7l-17.489.1a111.5 111.5 0 002.332 22.039l17.221-3.576a94 94 0 01-2.064-18.561zm3.354 24.303L4.09 141.34a111.5 111.5 0 007.937 20.664l15.535-7.825a94 94 0 01-6.717-17.43z" fill="#fce500"/></g><g fill-rule="evenodd" fill="red"><path d="M285.329 161.666V88.334h53.333s17.635 1.424 24.167 5.167c11.035 6.323 9.666 12.833 9.666 12.833v55.332h-30.667v-57.332s-1.304-6.834-12.667-6.834-12.667 6.834-12.667 6.834v57.332zM105.299 88.336s-20.25 2.166-20.25 20.166c0 19.292 36 31.172 36 39.416 0 2.583-2.668 3.25-2.668 3.25H82.715v10.5h52.166s19.5-2.173 19.5-17.166c0-22.333-38.666-33.904-38.666-43.084 0-2.583 2.666-3.25 2.666-3.25h40.5v-9.832zM266.049 88.336v73.332h-53.333s-17.635-1.424-24.167-5.167c-11.035-6.323-9.667-12.833-9.667-12.833V88.336h30.667v57.332s1.304 6.834 12.667 6.834 12.667-6.834 12.667-6.834V88.336z"/></g></svg>