<svg xmlns="http://www.w3.org/2000/svg" width="263" height="208" viewBox="0 0 263 208">
  <path fill="#EE5732" d="M31 186l17-1 2-1 20-67 12-40c0-2 1-4 4-4h2L57 180c12-3 24-4 36-5l12-45 4 42 9-1a740 740 0 0125-3l14-44 15-45 5-16c0-2 1-2 2-2l5-1-35 110c14-8 29-7 44-5l29-101h1v102c0 21-17 37-37 37H63c-12 0-22-4-29-13l-3-3v-1z"/>
  <path fill="#EE5732" d="M130 110l-7-46-11 1 8-30c-32 2-64 7-96 13v-7A37 37 0 0161 5h125c14 0 24 6 32 18v1l-10 2-43 6-8 1-2 2a1468 1468 0 01-7 26h-2l-3 3-12 43v3h-1z"/>
  <circle fill="#F7A23F" cx="124.7" cy="104.1" r="81.2"/>
  <path fill="#2A25CA" d="M263 18c0 8-1 15-5 21-5 6-10 11-17 13l-11 2c-2 0-3 0-3 2v111c0 17-11 32-27 38-5 2-11 3-16 3H64a44 44 0 01-38-20l-2-1-17 3-6 1 3-10 16-50v-2-46-1L0 85l3-13 5-19c0-1 0-2 2-2l10-2v-7A42 42 0 0162 0h123c17 0 29 8 37 22 1 1 2 2 3 1l17-2 16-2 5-1zM31 186v1l3 3c7 9 17 13 29 13h123c20 0 37-16 37-37V65v-1h-1l-29 101c-15-2-30-3-44 5l35-110-5 1c-1 0-2 0-2 2l-5 16-15 45-14 44a740 740 0 00-25 3l-9 1-4-42-12 45c-12 1-24 2-36 5L88 73h-2c-3 0-4 2-4 4l-12 40-20 67-2 1-17 1zm99-76h1v-3l12-43 3-3h2l2-1a1488 1488 0 007-27l8-1 43-6 10-2v-1c-8-12-18-18-32-18H61l-8 1c-17 4-28 18-29 35v7c32-6 64-11 96-13l-8 30 11-1 7 46zm-15-70l-16 1a331 331 0 00-51 7l-16 3-19 3-2 2-5 19-1 5 36-5L7 185h1l13-2 22-2c3 0 3 0 4-3l21-68 11-38 2-2 7-1a5062 5062 0 0121-5l3-15 3-9zm5 28l-13 2-13 2-2 2-7 25-18 62-4 13h1l15-2 9-1 2-1 3-12 14-49v-2l6 60 11-1h14l2-1 9-30 21-65 3-8h-1l-23 3-2 2-4 13-10 36-4 13-9-61zm34-8l36-5-34 107 15-2h17c1 0 2 0 2-2l23-76 8-29 2-2 7-1 9-2c6-1 10-5 13-9 4-4 6-10 7-16h-3l-9 2-13 1-15 2-17 3-13 2-16 2-12 2c-2 0-2 1-3 2l-1 6-3 15zM24 114h1l10-34-10 1-1 2v31z"/>
  <path fill="#F4EB5E" d="M115 40l-3 9-3 15-2 2-19 3-7 1-2 2-11 38-21 68c-1 3-1 3-4 3l-22 2-13 2H7L41 75 5 80l1-5 5-19 2-2 19-3 16-3a2142 2142 0 0151-7l16-1z"/>
  <path fill="#F4EB5E" d="M120 68l9 61 4-13 10-36 4-13 2-2 23-3h1l-3 8-21 65-9 30-2 1h-14l-11 1-6-60v2l-14 49-3 12-2 1-9 1-15 2h-1l4-13 18-62a2796 2796 0 019-27l13-2 13-2z"/>
  <path fill="#F4EB5E" d="M154 60l3-15 1-6c1-1 1-2 3-2l12-2 16-2 13-2 17-3 15-2 13-1 9-2h3c-1 6-3 12-7 16-3 4-7 8-13 9l-9 2-7 1-2 2-8 29-23 76c0 2-1 2-2 2h-17l-15 2 34-107-36 5z"/>
  <path fill="#EE5732" d="M24 114V83l1-2 10-1-10 34h-1z"/>
</svg>