<svg xmlns="http://www.w3.org/2000/svg" xmlns:xlink="http://www.w3.org/1999/xlink" id="body_1" width="230" height="144">

<g transform="matrix(0.8984375 0 0 0.9 0 0)">
    <path d="M50.042 0L113.82 0C 122.723 0 128.26 7.257 126.184 16.19L126.184 16.19L96.49 143.675C 94.395 152.577 85.479996 159.84 76.572 159.84L76.572 159.84L12.799 159.84C 3.9089994 159.84 -1.6409998 152.577 0.43599987 143.67499L0.43599987 143.67499L30.142 16.19C 32.219 7.257 41.128 0 50.042 0" stroke="none" fill="#E21836" fill-rule="nonzero"/>
    <path d="M108.513 0L181.857 0C 190.758 0 186.745 7.257 184.651 16.19L184.651 16.19L154.961 143.675C 152.879 152.577 153.528 159.84 144.608 159.84L144.608 159.84L71.265 159.84C 62.345 159.84 56.825 152.577 58.92 143.67499L58.92 143.67499L88.607 16.19C 90.715 7.257 99.606 0 108.513 0" stroke="none" fill="#00447C" fill-rule="nonzero"/>
    <path d="M178.948 0L242.726 0C 251.642 0 257.179 7.257 255.086 16.19L255.086 16.19L225.396 143.675C 223.301 152.577 214.381 159.84 205.466 159.84L205.466 159.84L141.718 159.84C 132.798 159.84 127.265 152.577 129.355 143.67499L129.355 143.67499L159.048 16.19C 161.125 7.257 170.028 0 178.948 0" stroke="none" fill="#007B84" fill-rule="nonzero"/>
    <path d="M66.698 40.856C 60.14 40.923 58.203 40.856 57.584 40.71C 57.346 41.84 52.92 62.255997 52.908 62.273C 51.955 66.403 51.262 69.348 48.906002 71.249C 47.570004 72.354004 46.009003 72.888 44.199 72.888C 41.291 72.888 39.596 71.443 39.312 68.704L39.312 68.704L39.257 67.764C 39.257 67.764 40.143 62.231 40.143 62.2C 40.143 62.2 44.788002 43.595 45.620003 41.136C 45.664 40.996002 45.676003 40.923 45.687004 40.856003C 36.646004 40.936005 35.043003 40.856003 34.933006 40.710003C 34.872005 40.910004 34.648006 42.064003 34.648006 42.064003L34.648006 42.064003L29.905006 63.034004L29.498007 64.812004L28.710007 70.629005C 28.710007 72.354004 29.049007 73.76301 29.723007 74.954C 31.884007 78.73 38.048008 79.296005 41.535007 79.296005C 46.027008 79.296005 50.24201 78.341 53.090008 76.59801C 58.03301 73.67801 59.327007 69.11201 60.480007 65.05401L60.480007 65.05401L61.015007 62.973007C 61.015007 62.973007 65.8 43.65 66.613 41.136C 66.643 40.996002 66.656 40.923 66.698 40.856003L66.698 40.856003L66.698 40.856zM82.978 56.444C 81.825 56.444 79.717995 56.724 77.824 57.652C 77.137 58.005 76.487 58.412 75.800995 58.818L75.800995 58.818L76.42 56.584L76.081 56.208C 72.066 57.021 71.167 57.13 67.458 57.652L67.458 57.652L67.148 57.859C 66.717 61.429 66.334 64.114 64.738 71.133L64.738 71.133L64.908 71.46001C 68.71 71.26001 69.863 71.26001 73.167 71.314L73.167 71.314L73.434 71.024C 73.854 68.874 73.908 68.37 74.838 64.015C 75.274994 61.951 76.186 57.415 76.634995 55.8C 77.45999 55.417 78.274994 55.041 79.051994 55.041C 80.90399 55.041 80.67799 56.656002 80.606995 57.3C 80.52699 58.38 79.853 61.909 79.160995 64.938995L79.160995 64.938995L78.699 66.894C 78.378 68.339 78.024994 69.742 77.702995 71.173996L77.702995 71.173996L77.842995 71.46C 81.589 71.26 82.731995 71.26 85.93099 71.313995L85.93099 71.313995L86.30699 71.023994C 86.885994 67.66599 87.05499 66.767 88.08099 61.877995L88.08099 61.877995L88.59699 59.631996C 89.59999 55.234997 90.10399 53.005997 89.34499 51.189995C 88.54299 49.154995 86.618 48.663994 84.85099 48.663994zM101.166 61.047C 99.174 61.43 97.904 61.684002 96.642 61.849C 95.391 62.049 94.17 62.232 92.246 62.499L92.246 62.499L92.093 62.637L91.953 62.747C 91.753006 64.181 91.61301 65.42 91.347 66.877C 91.122 68.382996 90.775 70.095 90.211 72.554C 89.774 74.436005 89.548996 75.092 89.299995 75.754C 89.057 76.417 88.78999 77.061 88.298996 78.911995L88.298996 78.911995L88.413994 79.08299L88.509995 79.23999C 90.309 79.15499 91.48599 79.09399 92.69499 79.08299C 93.90299 79.03999 95.15499 79.08299 97.09099 79.092995L97.09099 79.092995L97.26099 78.95599L97.442986 78.80299C 97.722984 77.132996 97.763985 76.68399 97.93498 75.869995C 98.10498 74.995995 98.39698 73.786995 99.11398 70.55599C 99.45298 69.038994 99.82999 67.52599 100.181984 65.97799C 100.54698 64.43599 100.928986 62.917988 101.292984 61.39999L101.292984 61.39999L101.23898 61.21699L101.165985 61.046993zM101.208 54.841C 99.398 53.773 96.223 54.112 94.085 55.586998C 91.954 57.032997 91.711 59.085 93.515 60.167C 95.293 61.204998 98.481 60.896 100.6 59.408C 102.727 57.931 102.993 55.898003 101.208 54.841zM112.151 79.575C 115.812004 79.575 119.565 78.564995 122.39 75.572C 124.562996 73.144 125.56 69.531 125.905 68.043C 127.028 63.112 126.153 60.809998 125.055 59.407997C 123.385 57.269997 120.434 56.583996 117.373 56.583996C 115.533005 56.583996 111.149 56.765995 107.724 59.923996C 105.264 62.200996 104.128 65.29199 103.443 68.254C 102.751 71.273994 101.955 76.708 106.953 78.730995C 108.495 79.393 110.718 79.575 112.151 79.575zM111.865 68.479996C 112.709 64.745995 113.706 61.611996 116.249 61.611996C 118.242004 61.611996 118.387 63.943996 117.501 67.689995C 117.342 68.521996 116.615 71.614 115.631 72.92999C 114.94299 73.90199 114.131 74.49099 113.230995 74.49099C 112.964 74.49099 111.37399 74.49099 111.349 72.12999C 111.337 70.96399 111.575 69.77299 111.865 68.47999zM135.056 79.09499L135.342 78.80399C 135.748 76.65399 135.815 76.148994 136.713 71.79599C 137.163 69.73099 138.093 65.19599 138.52899 63.57999C 139.35599 63.19599 140.157 62.819992 140.95898 62.819992C 142.79799 62.819992 142.57399 64.43499 142.50099 65.078995C 142.43399 66.160995 141.75899 69.687996 141.055 72.717995L141.055 72.717995L140.618 74.673C 140.284 76.118996 139.92 77.520996 139.59799 78.954994L139.59799 78.954994L139.73799 79.241C 143.49799 79.041 144.596 79.041 147.814 79.09499L147.814 79.09499L148.203 78.80399C 148.767 75.44399 148.92 74.54599 149.977 69.65799L149.977 69.65799L150.48001 67.41099C 151.488 63.01399 151.99802 60.786987 151.251 58.97099C 150.42601 56.93599 148.48901 56.44499 146.746 56.44499C 145.591 56.44499 143.473 56.72299 141.59 57.65299C 140.91699 58.00499 140.24199 58.410988 139.58 58.81899L139.58 58.81899L140.157 56.584988L139.847 56.20699C 135.83301 57.02099 134.917 57.12999 131.212 57.65299L131.212 57.65299L130.927 57.85899C 130.478 61.42999 130.113 64.11299 128.517 71.13399L128.517 71.13399L128.687 71.46199C 132.494 71.26199 133.62999 71.26199 136.927 71.31599zM162.674 79.23999C 162.90999 78.08599 164.314 71.24999 164.32599 71.24999C 164.32599 71.24999 165.521 66.232994 165.59499 66.050995C 165.59499 66.050995 165.971 65.52899 166.34698 65.322L166.34698 65.322L166.89998 65.322C 172.12198 65.322 178.01898 65.322 182.63998 61.921997C 185.78499 59.589996 187.93498 56.146996 188.89398 51.961998C 189.14297 50.935997 189.32599 49.716 189.32599 48.496C 189.32599 46.892998 189.00499 45.307 188.07498 44.067997C 185.71799 40.770996 181.02498 40.709995 175.60698 40.684998L175.60698 40.684998L172.93698 40.71C 166.00198 40.795998 163.22098 40.771 162.07799 40.631C 161.982 41.136 161.79999 42.035 161.79999 42.035C 161.79999 42.035 159.316 53.548 159.316 53.566L159.316 53.566L153.09099 79.198C 159.14598 79.125 161.62898 79.125 162.67398 79.24zM167.277 58.78799C 167.277 58.78799 169.91699 47.29799 169.905 47.34199L169.905 47.34199L169.991 46.75199L170.028 46.30399L171.084 46.41199C 171.084 46.41199 176.531 46.87999 176.658 46.89199C 178.808 47.72399 179.694 49.867992 179.076 52.665993C 178.511 55.22399 176.853 57.373993 174.72101 58.41199C 172.966 59.291992 170.81601 59.36499 168.60101 59.36499L168.60101 59.36499L167.16801 59.36499L167.27701 58.78799zM183.721 68.69299C 183.023 71.66799 182.221 77.103 187.194 79.03999C 188.78 79.714 190.201 79.91499 191.644 79.841995C 193.17 79.759995 194.583 78.994995 195.892 77.894L195.892 77.894L195.537 79.253L195.763 79.543C 199.34 79.393 200.45 79.393 204.325 79.423L204.325 79.423L204.677 79.155C 205.242 75.827995 205.776 72.598 207.24701 66.233C 207.96301 63.185 208.67801 60.166 209.41301 57.13L209.41301 57.13L209.298 56.796C 205.297 57.537003 204.228 57.696003 200.378 58.241L200.378 58.241L200.086 58.479C 200.047 58.789 200.006 59.086 199.969 59.383C 199.37099 58.416 198.50299 57.59 197.165 57.076C 195.45299 56.402 191.433 57.27 187.978 60.416C 185.549 62.663002 184.383 65.741 183.721 68.693zM192.125 68.87499C 192.982 65.20699 193.965 62.104992 196.515 62.104992C 198.127 62.104992 198.976 63.59199 198.803 66.12899C 198.54799 67.21899 198.27199 68.29899 198.00299 69.38099C 197.72899 70.12099 197.40999 70.81899 197.06099 71.28399C 196.40498 72.21399 194.844 72.789986 193.94499 72.789986C 193.68999 72.789986 192.11699 72.789986 192.06299 70.469986C 192.04999 69.31599 192.288 68.125984 192.58499 66.819984zM236.011 56.76599L235.701 56.41299C 231.742 57.21499 231.02501 57.34299 227.388 57.833992L227.388 57.833992L227.12 58.10099C 227.108 58.14499 227.097 58.21099 227.07799 58.27199L227.07799 58.27199L227.066 58.21199C 224.358 64.45999 224.437 63.11199 222.233 68.02999C 222.22 67.80599 222.22 67.66699 222.20801 67.42899L222.20801 67.42899L221.656 56.76599L221.31001 56.41299C 217.16202 57.21499 217.06401 57.34299 213.23401 57.833992L213.23401 57.833992L212.93501 58.10099C 212.893 58.22899 212.893 58.36899 212.86801 58.52099L212.86801 58.52099L212.893 58.57599C 213.37201 61.021988 213.257 60.47599 213.737 64.33799C 213.961 66.23299 214.26 68.13899 214.483 70.01099C 214.86101 73.14299 215.073 74.68498 215.534 79.46599C 212.948 83.733986 212.33499 85.34999 209.844 89.095985L209.844 89.095985L209.862 89.13299L208.108 91.90699C 207.908 92.19899 207.726 92.39899 207.47101 92.48499C 207.19101 92.62299 206.82701 92.647995 206.322 92.647995L206.322 92.647995L205.35 92.647995L203.906 97.451996L208.86101 97.536995C 211.76901 97.524994 213.59702 96.16499 214.58101 94.337L214.58101 94.337L217.697 88.998L217.647 88.998L217.975 88.622C 220.071 84.111 236.011 56.766 236.011 56.766zM183.72101 119.85399L181.619 119.85399L189.399 94.12399L191.979 94.12399L192.79901 91.47399L192.87701 94.42099C 192.78102 96.24299 194.21402 97.85799 197.97902 97.59099L197.97902 97.59099L202.33401 97.59099L203.83202 92.636986L202.19402 92.636986C 201.25201 92.636986 200.81401 92.39899 200.86902 91.888985L200.86902 91.888985L200.79002 88.889984L192.72702 88.889984L192.72702 88.90598C 190.12003 88.959984 182.33401 89.15598 180.75803 89.57598C 178.85103 90.06598 176.84102 91.51298 176.84102 91.51298L176.84102 91.51298L177.63101 88.85898L170.08801 88.85898L168.516 94.12398L160.63301 120.24698L159.10301 120.24698L157.60301 125.16598L172.626 125.16598L172.123 126.80598L179.525 126.80598L180.017 125.16598L182.093 125.16598L183.72101 119.85398zM177.557 99.35199C 176.34901 99.68599 174.102 100.69999 174.102 100.69999L174.102 100.69999L176.101 94.12399L182.093 94.12399L180.648 98.91499C 180.648 98.91499 178.79599 99.024994 177.558 99.35199zM177.67201 108.74599C 177.67201 108.74599 175.79001 108.98299 174.55101 109.261986C 173.33101 109.63199 171.042 110.79799 171.042 110.79799L171.042 110.79799L173.10701 103.95499L179.13 103.95499L177.67201 108.74599zM174.31401 119.91399L168.30301 119.91399L170.046 114.138985L176.03801 114.138985L174.31401 119.91399zM188.79102 103.95499L197.45601 103.95499L196.21101 107.98798L187.43102 107.98798L186.11302 112.39598L193.79602 112.39598L187.97803 120.58698C 187.57103 121.18898 187.20602 121.401985 186.80003 121.570984C 186.39304 121.777985 185.85803 122.02098 185.24004 122.02098L185.24004 122.02098L183.10803 122.02098L181.64403 126.84898L187.21803 126.84898C 190.11603 126.84898 191.82803 125.53098 193.09103 123.80099L193.09103 123.80099L197.08104 118.34099L197.93704 123.88499C 198.11905 124.92299 198.86504 125.53099 199.37004 125.76698C 199.92804 126.04698 200.50504 126.526985 201.32004 126.59898C 202.19304 126.63599 202.82404 126.665985 203.24403 126.665985L203.24403 126.665985L205.98404 126.665985L207.62804 121.261986L206.54803 121.261986C 205.92804 121.261986 204.85904 121.15799 204.67804 120.96399C 204.49504 120.72699 204.49504 120.36399 204.39804 119.80999L204.39804 119.80999L203.52805 114.25399L199.97005 114.25399L201.53105 112.39599L210.29405 112.39599L211.64206 107.98799L203.52905 107.98799L204.79205 103.954994L212.88106 103.954994L214.38106 98.981995L190.26706 98.981995L188.79106 103.954994zM115.60602 121.03699L117.62802 114.30899L125.941025 114.30899L127.45902 109.30499L119.13902 109.30499L120.40902 105.163994L128.53902 105.163994L130.04602 100.31799L109.70302 100.31799L108.22802 105.163994L112.85002 105.163994L111.61702 109.30399L106.98302 109.30399L105.447014 114.394L110.06702 114.394L107.37102 123.296C 107.00802 124.474 107.542015 124.923 107.88102 125.471C 108.22802 126.004 108.57902 126.357 109.36902 126.557C 110.18402 126.739 110.74202 126.848 111.500015 126.848L111.500015 126.848L120.87102 126.848L122.541016 121.304L118.38702 121.875C 117.585014 121.875 115.363014 121.779 115.60602 121.037zM116.55902 88.82899L114.45302 92.63599C 114.00302 93.46699 113.596016 93.983986 113.23102 94.220985C 112.90902 94.42098 112.27102 94.50599 111.348015 94.50599L111.348015 94.50599L110.249016 94.50599L108.780014 99.37599L112.430016 99.37599C 114.18601 99.37599 115.53301 98.732994 116.17702 98.410995C 116.86902 98.04099 117.05102 98.252 117.585014 97.73599L117.585014 97.73599L118.818016 96.66799L130.21602 96.66799L131.72902 91.59799L123.38502 91.59799L124.84202 88.827995L116.55902 88.827995zM133.38602 121.13499C 133.19202 120.85499 133.33202 120.361984 133.62901 119.33598L133.62901 119.33598L136.74402 109.02499L147.82703 109.02499C 149.44203 109.00198 150.60703 108.98299 151.36702 108.928986C 152.18102 108.84299 153.06702 108.55199 154.03201 108.02998C 155.029 107.48299 155.53902 106.90598 155.96901 106.24398C 156.449 105.58398 157.22101 104.13698 157.88301 101.90798L157.88301 101.90798L161.79901 88.85898L150.29901 88.92598C 150.29901 88.92598 146.757 89.44798 145.19801 90.02598C 143.62502 90.668976 141.37701 92.46598 141.37701 92.46598L141.37701 92.46598L142.41501 88.88898L135.311 88.88898L125.365005 121.87498C 125.01201 123.154976 124.77501 124.08498 124.72101 124.643974C 124.70301 125.24497 125.48001 125.84097 125.98401 126.28998C 126.57901 126.738976 127.45901 126.66598 128.30301 126.738976C 129.19101 126.80598 130.453 126.84798 132.19601 126.84798L132.19601 126.84798L137.65602 126.84798L139.33102 121.18898L134.44403 121.65098C 133.92104 121.65098 133.54404 121.37098 133.38603 121.13498zM138.75401 102.06099L150.39401 102.06099L149.654 104.37999C 149.55101 104.43399 149.302 104.26499 148.117 104.40499L148.117 104.40499L138.037 104.40499L138.754 102.06099zM141.08601 94.28099L152.82501 94.28099L151.98001 97.07499C 151.98001 97.07499 146.44801 97.02099 145.56201 97.18399C 141.66202 97.85899 139.38501 99.94199 139.38501 99.94199L139.38501 99.94199L141.08601 94.282zM149.91602 112.14699C 149.81902 112.49399 149.66602 112.70499 149.45401 112.86399C 149.21701 113.01599 148.83401 113.06999 148.264 113.06999L148.264 113.06999L146.606 113.06999L146.70401 110.245995L139.80402 110.245995L139.52402 124.05499C 139.51402 125.050995 139.61002 125.62799 140.33902 126.09C 141.06902 126.66599 143.31502 126.74 146.33902 126.74L146.33902 126.74L150.66202 126.74L152.22202 121.57L148.45901 121.777L147.20702 121.85C 147.03702 121.777 146.87302 121.71 146.69101 121.529C 146.533 121.372 146.26501 121.468 146.309 120.472L146.309 120.472L146.339 116.932L150.285 116.769C 152.417 116.769 153.328 116.075 154.10501 115.415C 154.84601 114.782 155.089 114.055 155.36902 113.07L155.36902 113.07L156.03102 109.936L150.60703 109.936L149.91502 112.145996z" stroke="none" fill="#FEFEFE" fill-rule="nonzero"/>
</g>
</svg>